# xmcd
#
# Track frame offsets:
#	150
#	17516
#	32770
#	48301
#	64363
#	81017
#	97874
#	111671
#	125846
#	144471
#	158211
#	175304
#
# Disc length: 2541 seconds
#
# Revision: 0
# Processed by: cddbd v1.5.1PL2 Copyright (c) Steve Scherf et al.
# Submitted via: dBpowerAMP V4.0
#
DISCID=a209eb0c
DTITLE=Kastelruther Spatzen - Berg ohne Wiederkehr
DYEAR=2005
DGENRE=Country
TTITLE0=Die Tränen der Sonne
TTITLE1=An dich
TTITLE2=Berg ohne Wiederkehr
TTITLE3=Ich möchte ein Bote sein
TTITLE4=Von der Zeit vergessen
TTITLE5=Dich zu vergessen, das schaffe ich nicht
TTITLE6=Schau, was für ein Tag
TTITLE7=Gold, Platin and Everest
TTITLE8=Ja, ich will
TTITLE9=War glauben kann, hat Flügel
TTITLE10=Am Ende steht ein Licht
TTITLE11=Wenn ein Herz dich ruft
EXTD=Deutsche Volksmusik. Titel in der neuen deutschen Rechtschreibung, Track 12 ist ein Bonustitel
EXTT0=
EXTT1=
EXTT2=
EXTT3=
EXTT4=
EXTT5=
EXTT6=
EXTT7=
EXTT8=
EXTT9=
EXTT10=
EXTT11=
PLAYORDER=
